<?xml version="1.0" standalone="no"?>
<!DOCTYPE svg PUBLIC "-//W3C//DTD SVG 20010904//EN"
 "http://www.w3.org/TR/2001/REC-SVG-20010904/DTD/svg10.dtd">
<svg version="1.0" xmlns="http://www.w3.org/2000/svg"
 width="1377.000000pt" height="448.000000pt" viewBox="0 0 1377.000000 448.000000"
 preserveAspectRatio="xMidYMid meet">
<metadata>
Created by potrace 1.16, written by Peter Selinger 2001-2019
</metadata>
<g transform="translate(0.000000,448.000000) scale(0.100000,-0.100000)"
fill="#000000" stroke="none">
<path d="M0 2240 l0 -2240 6885 0 6885 0 -2 2238 -3 2237 -6882 3 -6883 2 0
-2240z m8070 1431 c0 -14 -105 -136 -294 -341 -203 -219 -627 -690 -649 -720
-24 -31 -27 -41 -18 -58 6 -12 90 -115 187 -229 l177 -208 64 0 c60 0 67 -2
94 -33 16 -18 29 -45 30 -60 3 -70 1 -158 -4 -172 -6 -19 -37 -248 -37 -274 0
-43 47 27 155 230 123 231 159 275 238 299 63 19 88 19 132 1 76 -32 91 -118
59 -329 -19 -126 -44 -400 -44 -485 0 -61 18 -117 44 -134 27 -18 68 -5 140
43 42 28 83 60 91 72 11 16 15 51 15 142 0 139 16 222 60 329 110 264 323 410
535 366 118 -24 192 -78 243 -175 23 -43 27 -62 27 -141 0 -85 -2 -95 -39
-170 -74 -149 -228 -274 -428 -349 -27 -10 -48 -22 -48 -27 0 -21 33 -65 66
-87 114 -78 403 12 617 193 76 63 165 176 283 358 60 92 115 175 122 185 11
15 12 6 7 -57 -36 -470 -295 -817 -697 -934 -279 -81 -481 -50 -612 95 l-54
61 -80 -56 c-125 -88 -269 -146 -360 -146 -82 0 -134 59 -169 191 -21 79 -21
298 -1 444 8 55 11 111 8 125 l-6 25 -15 -25 c-8 -13 -93 -180 -189 -370 -199
-392 -201 -395 -298 -388 -84 7 -118 45 -149 166 l-8 32 -55 -36 c-30 -21
-104 -57 -165 -82 -251 -101 -381 -108 -457 -24 -18 20 -40 53 -48 72 -7 19
-14 36 -16 38 -1 2 -42 -20 -90 -48 -181 -103 -320 -139 -408 -106 -83 32
-153 137 -182 276 -17 83 -12 165 16 267 13 48 14 63 5 63 -29 0 -24 33 9 70
19 21 42 49 50 62 18 28 48 120 40 127 -9 10 -108 -97 -190 -206 -116 -154
-181 -259 -285 -465 -49 -97 -99 -184 -111 -192 -31 -22 -90 -20 -121 4 -34
27 -54 129 -60 302 -1 38 -5 68 -9 68 -4 0 -21 -27 -39 -60 -42 -78 -126 -170
-211 -230 -200 -141 -549 -209 -841 -165 -289 43 -510 178 -600 366 -45 92
-56 143 -57 241 0 137 67 254 175 304 67 32 109 31 142 -2 26 -26 26 -27 17
-122 -16 -179 -11 -252 19 -315 49 -99 131 -151 293 -187 164 -36 351 -24 494
32 261 102 378 288 294 468 -61 131 -169 212 -507 380 -453 226 -600 356 -639
570 -21 112 16 250 97 360 38 51 153 145 220 178 261 129 635 139 870 22 150
-74 253 -182 306 -318 63 -162 -3 -388 -154 -528 -62 -57 -98 -71 -170 -61
-86 12 -87 68 -2 242 50 103 59 130 63 191 5 77 -13 127 -60 171 -91 85 -348
133 -526 100 -306 -58 -422 -274 -250 -462 75 -82 190 -153 489 -301 148 -74
296 -152 327 -173 102 -70 176 -153 258 -287 8 -13 13 19 23 137 61 776 200
1249 431 1462 90 84 153 110 275 115 89 3 105 1 145 -20 111 -57 138 -259 70
-520 -59 -227 -145 -435 -332 -807 -149 -297 -169 -341 -150 -341 14 0 29 16
109 111 134 158 292 300 362 324 25 8 59 15 77 15 41 0 91 -41 102 -83 l8 -31
233 250 c128 137 240 259 248 272 20 29 17 33 -172 252 -367 424 -404 470
-399 485 4 8 14 15 23 15 9 0 169 -128 355 -285 186 -157 345 -285 353 -285 7
0 57 39 111 87 135 122 406 368 597 542 354 324 374 341 389 335 9 -3 16 -14
16 -23z m2162 -1311 c46 -13 78 -52 78 -96 0 -43 -23 -58 -116 -78 -83 -17
-134 -41 -221 -103 -35 -24 -63 -41 -63 -37 0 21 109 210 146 252 42 48 54 55
134 71 3 0 22 -4 42 -9z m69 -438 c35 -39 37 -67 7 -99 -31 -33 -48 -29 -103
27 -29 29 -71 59 -102 72 -28 12 -50 25 -46 31 3 5 52 7 110 5 104 -3 105 -3
134 -36z"/>
<path d="M5859 3098 c-63 -58 -171 -264 -228 -434 -39 -116 -93 -388 -126
-630 -14 -105 -25 -197 -25 -205 0 -38 38 36 131 256 204 484 245 599 300 852
19 90 20 107 9 147 -7 25 -16 46 -19 46 -4 0 -23 -15 -42 -32z"/>
<path d="M6668 2193 c-405 -366 -363 -319 -409 -458 -70 -212 -90 -305 -92
-418 -3 -140 17 -160 121 -123 101 36 253 168 272 235 6 20 40 158 76 308 70
289 78 309 142 342 112 57 252 44 252 -23 0 -11 -36 -158 -79 -326 -86 -326
-107 -443 -96 -529 9 -70 41 -106 88 -97 52 10 316 198 332 236 3 8 28 156 56
330 27 173 54 328 59 344 6 16 9 30 8 31 -5 3 -181 151 -320 268 -71 59 -135
107 -143 107 -8 0 -129 -102 -267 -227z"/>
<path d="M8912 1849 c-81 -40 -135 -139 -148 -269 -3 -30 -7 -66 -10 -79 -5
-23 -3 -24 40 -19 25 3 70 18 100 33 116 59 186 144 186 227 0 114 -67 156
-168 107z"/>
</g>
</svg>
