<svg xmlns="http://www.w3.org/2000/svg" version="1.0" width="1377.000000" height="448.000000" preserveAspectRatio="xMidYMid meet"><rect id="backgroundrect" width="100%" height="100%" x="0" y="0" fill="none" stroke="none"/>
<metadata>
Created by potrace 1.16, written by Peter Selinger 2001-2019
</metadata>

<g class="currentLayer" style=""><title>Layer 1</title><g transform="translate(0,448) scale(0.10000000149011612,-0.10000000149011612) " fill="#ffffff" stroke="none" id="svg_1" class="selected" fill-opacity="1">
<path d="M0 2240 l0 -2240 6885 0 6885 0 -2 2238 -3 2237 -6882 3 -6883 2 0 -2240z m4358 1383 l-3 -78 -340 -2 c-187 -2 -357 -3 -377 -3 l-38 0 0 -1262 1 -1263 32 35 c74 82 189 211 258 289 l74 84 -4 1023 -3 1024 201 0 201 0 2 -800 3 -801 185 208 185 208 108 3 c106 3 123 -3 91 -29 -9 -7 -122 -132 -251 -276 -129 -145 -239 -261 -244 -258 -5 4 -6 0 -4 -8 3 -7 -12 -30 -35 -50 l-40 -38 0 -349 0 -350 301 0 300 0 -2 -75 -2 -75 -485 0 c-426 0 -483 2 -478 15 3 8 3 22 -1 31 -5 13 -7 13 -14 2 -5 -7 -9 62 -8 165 0 133 3 176 12 171 7 -4 7 -1 -1 7 -11 12 -17 9 -40 -18 -15 -17 -83 -95 -151 -172 -106 -119 -127 -138 -140 -128 -14 10 -14 10 -3 -5 11 -14 8 -20 -21 -42 -33 -25 -37 -26 -190 -26 -156 0 -157 0 -158 23 l-2 22 -4 -22 c-8 -40 -21 -25 -17 20 l3 42 -8 -38 c-9 -44 -19 -56 -30 -39 -10 16 -21 1203 -21 2184 l0 728 580 0 581 0 -3 -77z m5201 -819 c105 -168 191 -307 191 -310 0 -2 -15 -4 -33 -4 -30 0 -37 6 -78 75 l-44 74 -226 1 -226 0 -44 -72 c-41 -68 -47 -73 -82 -76 l-37 -3 57 93 c138 223 328 528 330 528 1 0 88 -138 192 -306z m-3772 260 c32 -24 49 -54 58 -106 7 -37 6 -38 -22 -38 -26 0 -31 5 -42 40 -20 69 -26 70 -294 70 -267 0 -278 -3 -297 -69 -13 -47 -13 -295 0 -343 19 -66 26 -68 295 -68 269 0 274 1 296 68 14 43 24 52 51 44 17 -4 19 -10 13 -41 -10 -54 -36 -94 -75 -113 -31 -16 -67 -18 -285 -18 -281 0 -301 4 -340 70 -18 32 -20 52 -20 230 0 311 -2 309 411 300 206 -5 225 -7 251 -26z m861 -1 c40 -30 57 -71 57 -138 0 -44 -6 -71 -22 -98 l-22 -37 22 -37 c18 -32 23 -56 26 -150 l3 -113 -31 0 -31 0 0 89 c0 48 -5 102 -11 120 -20 58 -39 61 -334 61 l-265 0 0 -135 0 -135 -30 0 -30 0 0 300 0 300 253 2 c302 4 379 -2 415 -29z m332 -103 l159 -131 143 118 c79 65 151 124 161 132 18 14 97 22 97 10 0 -4 -83 -75 -185 -159 l-185 -153 0 -143 0 -144 -30 0 -30 0 0 143 0 142 -189 156 c-105 86 -187 159 -184 162 3 4 23 4 44 2 33 -3 65 -25 199 -135z m1242 113 c43 -25 66 -60 74 -110 7 -43 6 -43 -24 -43 -28 0 -32 4 -42 40 -19 69 -24 70 -298 70 l-243 0 -24 -25 c-31 -30 -37 -95 -13 -141 19 -40 49 -44 291 -44 206 0 237 -3 274 -19 54 -25 77 -67 77 -146 1 -68 -16 -108 -57 -139 -27 -20 -43 -21 -287 -24 -282 -3 -312 1 -346 53 -21 32 -36 107 -24 119 17 17 60 -11 60 -39 0 -14 11 -37 25 -50 l24 -25 243 0 c270 0 277 1 298 64 8 25 8 46 0 74 -18 68 -27 70 -296 72 -218 1 -243 2 -281 21 -53 26 -76 72 -75 150 1 99 43 149 131 159 25 3 144 4 264 3 190 -1 222 -4 249 -20z m861 17 c5 0 7 -12 5 -27 l-3 -28 -165 -5 -165 -5 0 -268 0 -268 -30 3 -30 3 0 267 0 268 -167 0 -168 0 0 28 c0 16 2 31 4 33 3 3 614 2 719 -1z m815 -267 l2 -273 330 0 330 0 0 -30 0 -30 -360 0 -360 0 0 306 0 305 28 -3 27 -3 3 -272z m-4716 -843 l3 -271 330 -2 330 -2 3 -27 3 -27 -343 -3 c-189 -2 -353 -2 -365 0 l-23 3 0 300 0 299 30 0 30 0 2 -270z m838 -30 c0 -165 -3 -300 -7 -301 -5 0 -18 -2 -30 -3 l-23 -3 0 304 0 303 30 0 30 0 0 -300z m793 277 c48 -31 85 -138 53 -150 -27 -11 -45 3 -56 43 -18 67 -30 70 -290 70 -243 0 -277 -5 -295 -47 -11 -25 -19 -283 -10 -339 4 -29 16 -56 30 -70 24 -24 25 -24 269 -24 242 0 245 0 272 23 24 21 28 32 32 105 l5 82 -177 0 -176 0 0 30 0 30 206 0 206 0 -4 -120 c-3 -101 -7 -124 -25 -147 -45 -61 -56 -63 -337 -64 -288 0 -300 2 -341 71 -18 32 -20 52 -20 230 0 226 6 248 78 281 39 18 63 19 297 17 225 -3 259 -5 283 -21z m257 -112 l0 -135 305 0 305 0 0 135 0 135 30 0 30 0 0 -299 c0 -165 -4 -302 -8 -305 -5 -3 -18 -2 -30 1 -21 5 -22 10 -22 139 l0 134 -302 -2 -303 -3 -5 -135 -5 -135 -25 0 -25 0 -3 303 -2 302 30 0 30 0 0 -135z m1530 105 l0 -30 -165 0 -165 0 -2 -272 -3 -271 -27 -1 -28 -2 0 273 0 273 -167 2 -168 3 0 28 -1 27 363 0 363 0 0 -30z m1950 -265 l0 -295 -910 0 -910 0 0 295 0 295 910 0 910 0 0 -295z" id="svg_2" fill="#ffffff" fill-opacity="1"/>
<path d="M9278 2855 c-49 -78 -88 -145 -88 -149 0 -3 81 -6 180 -6 99 0 180 2 180 4 0 5 -169 278 -179 288 -3 3 -45 -58 -93 -137z" id="svg_3" fill="#ffffff" fill-opacity="1"/>
<path d="M6040 2925 l0 -105 265 0 c216 0 271 3 295 15 56 29 63 135 13 175 -24 19 -42 20 -299 20 l-274 0 0 -105z" id="svg_4" fill="#ffffff" fill-opacity="1"/>
<path d="M8958 2159 c-25 -14 -24 -65 1 -79 11 -5 51 -10 89 -10 69 0 85 -8 75 -37 -3 -9 -28 -13 -79 -13 -67 0 -74 2 -74 20 0 11 -7 20 -15 20 -24 0 -19 -47 6 -61 13 -6 54 -10 101 -7 82 3 98 12 98 53 0 42 -15 50 -105 54 -76 3 -85 5 -85 22 0 17 8 19 75 19 60 0 75 -3 75 -15 0 -8 7 -15 15 -15 20 0 20 46 -1 54 -26 10 -158 6 -176 -5z" id="svg_5" fill="#ffffff" fill-opacity="1"/>
<path d="M9218 2163 c-2 -5 -4 -44 -3 -88 0 -67 3 -80 17 -83 14 -3 18 7 20 63 l3 67 53 -66 c29 -36 57 -66 62 -66 5 0 33 30 62 66 l53 66 3 -66 c2 -50 7 -66 17 -66 12 0 15 18 15 90 0 82 -2 90 -19 90 -13 0 -39 -26 -73 -70 -29 -38 -55 -69 -58 -70 -3 0 -29 32 -58 70 -33 44 -59 70 -72 70 -10 0 -20 -3 -22 -7z" id="svg_6" fill="#ffffff" fill-opacity="1"/>
<path d="M9618 2082 c-47 -71 -55 -88 -41 -91 10 -2 24 6 31 18 13 18 24 21 88 21 63 0 75 -3 84 -20 10 -18 40 -29 40 -14 0 4 -24 44 -52 90 -38 59 -59 84 -73 84 -14 0 -37 -26 -77 -88z" id="svg_7" fill="#ffffff" fill-opacity="1"/>
<path d="M9860 2080 c0 -83 1 -90 20 -90 16 0 20 7 20 35 l0 35 59 0 c78 0 91 -6 91 -41 0 -18 5 -29 14 -29 11 0 14 18 14 80 0 98 -2 100 -127 100 l-91 0 0 -90z" id="svg_8" fill="#ffffff" fill-opacity="1"/>
<path d="M9842 1823 l3 -88 98 -3 c82 -2 97 0 97 13 0 12 -15 15 -79 15 -54 0 -80 4 -83 13 -12 30 4 37 78 37 59 0 74 3 74 15 0 12 -15 15 -79 15 -78 0 -78 0 -73 25 4 24 7 25 83 25 46 0 79 4 79 10 0 6 -40 10 -100 10 l-101 0 3 -87z" id="svg_9" fill="#ffffff" fill-opacity="1"/>
<path d="M10090 1820 l0 -90 78 0 c83 0 141 12 154 32 4 7 8 36 8 64 0 76 -14 84 -138 84 l-102 0 0 -90z m195 58 c4 -3 9 -24 12 -45 8 -60 -12 -75 -101 -71 l-71 3 -3 49 c-5 77 -3 79 82 74 41 -2 78 -6 81 -10z" id="svg_10" fill="#ffffff" fill-opacity="1"/>
</g></g></svg>