<?xml version="1.0" standalone="no"?>
<!DOCTYPE svg PUBLIC "-//W3C//DTD SVG 20010904//EN"
 "http://www.w3.org/TR/2001/REC-SVG-20010904/DTD/svg10.dtd">
<svg version="1.0" xmlns="http://www.w3.org/2000/svg"
 width="1377.000000pt" height="448.000000pt" viewBox="0 0 1377.000000 448.000000"
 preserveAspectRatio="xMidYMid meet">
<metadata>
Created by potrace 1.16, written by Peter Selinger 2001-2019
</metadata>
<g transform="translate(0.000000,448.000000) scale(0.100000,-0.100000)"
fill="#000000" stroke="none">
<path d="M0 2240 l0 -2240 6885 0 6885 0 -2 2238 -3 2237 -6882 3 -6883 2 0
-2240z m3730 403 c0 -782 -2 -844 -19 -928 -24 -114 -49 -181 -103 -272 -149
-251 -397 -413 -681 -443 -51 -5 -420 -10 -820 -10 l-728 0 3 868 c3 860 4
868 26 947 45 162 160 351 273 449 74 63 170 122 259 159 160 66 142 65 1008
66 l782 1 0 -837z m892 337 c66 -20 84 -18 93 11 15 47 25 11 25 -91 0 -60 -4
-110 -9 -110 -5 0 -14 15 -21 33 -35 88 -107 140 -195 140 -62 0 -102 -20
-148 -74 -43 -50 -61 -116 -60 -220 1 -132 42 -227 115 -265 39 -20 135 -20
184 1 21 9 58 35 82 58 l43 42 -3 -35 c-7 -73 -158 -140 -287 -127 -165 18
-273 112 -300 263 -39 215 146 418 363 398 32 -3 85 -14 118 -24z m2004 -283
c128 -291 135 -304 170 -317 51 -20 19 -26 -131 -26 -85 0 -155 3 -155 8 0 4
11 8 24 8 14 0 31 7 40 15 13 13 13 20 1 54 -7 21 -21 53 -30 70 l-16 32 -111
-3 -112 -3 -20 -58 c-24 -66 -18 -86 33 -101 54 -15 34 -21 -69 -21 -105 1
-130 8 -87 24 14 6 37 27 51 48 19 28 219 464 263 572 8 18 13 9 149 -302z
m-1366 283 c82 -23 139 -89 140 -163 0 -63 -53 -132 -117 -152 -13 -3 -23 -9
-22 -13 2 -20 180 -250 207 -269 18 -12 29 -24 24 -27 -15 -9 -183 -3 -197 8
-7 6 -55 70 -105 141 -132 187 -140 188 -140 16 0 -130 3 -136 60 -148 65 -12
-2 -21 -154 -21 -142 1 -182 9 -111 22 19 4 39 15 45 26 12 22 14 529 2 547
-10 15 -61 35 -73 27 -5 -3 -9 1 -9 8 0 10 42 12 207 10 114 -1 223 -7 243
-12z m780 -83 c0 -63 -4 -96 -10 -92 -5 3 -10 13 -10 22 0 31 -33 83 -64 103
-23 13 -59 22 -119 26 l-87 7 0 -132 0 -131 29 0 c39 0 88 42 96 83 11 56 16
67 26 62 12 -8 12 -322 0 -330 -5 -3 -16 19 -25 48 -18 63 -40 86 -90 94 l-36
6 0 -114 c0 -146 7 -159 88 -159 31 0 75 5 97 11 48 13 108 73 125 123 10 31
30 50 30 29 0 -8 -15 -111 -25 -169 l-5 -30 -270 -1 c-149 0 -273 4 -276 8 -3
5 6 9 20 9 14 0 35 9 46 20 19 19 20 33 20 284 0 290 0 288 -60 301 -16 4 -30
10 -30 13 0 4 119 7 265 7 l265 0 0 -98z m1715 91 c3 -3 -9 -8 -26 -12 -61
-12 -59 -4 -59 -302 0 -271 0 -273 22 -288 12 -9 34 -16 48 -17 23 0 23 -1 5
-8 -25 -10 -311 -9 -321 2 -4 4 4 7 17 7 14 0 35 7 47 16 22 15 22 17 22 288
0 298 1 290 -58 302 -18 4 -30 9 -28 13 5 7 323 7 331 -1z m335 1 c0 -3 -15
-10 -32 -15 -19 -6 -34 -17 -36 -28 -4 -19 147 -386 159 -386 9 0 148 314 155
349 7 34 -14 60 -49 63 -15 1 -26 7 -24 12 3 10 181 16 197 6 6 -4 -6 -17 -27
-31 -35 -22 -49 -48 -173 -322 -74 -163 -139 -296 -144 -294 -5 2 -64 129
-130 283 -144 331 -150 344 -176 344 -11 0 -20 6 -20 13 0 9 37 12 150 12 83
0 150 -3 150 -6z m928 1 c9 0 12 -26 12 -96 0 -93 -11 -117 -25 -54 -16 73
-72 108 -185 117 l-80 6 0 -132 0 -131 31 0 c42 0 86 46 95 99 15 91 24 44 24
-119 0 -112 -3 -169 -10 -165 -5 3 -10 15 -10 26 0 56 -58 119 -110 119 -19 0
-20 -8 -20 -119 0 -142 5 -151 83 -151 112 0 172 33 213 115 14 30 29 55 31
55 7 0 -6 -141 -16 -177 l-7 -28 -266 -1 c-146 -1 -272 2 -280 7 -9 6 -5 9 13
9 15 0 37 9 50 19 24 19 24 20 26 273 3 279 0 294 -55 312 -18 7 -31 14 -28
16 3 4 309 4 514 0z m777 -15 c50 -14 91 -48 114 -92 15 -30 14 -99 -3 -131
-39 -76 -103 -101 -273 -111 -10 -1 -13 -29 -13 -105 0 -130 8 -153 55 -162
73 -13 30 -20 -125 -20 -88 0 -160 4 -160 8 0 4 9 8 19 8 10 0 28 8 40 18 21
17 22 23 22 286 0 292 -1 299 -55 299 -14 0 -26 5 -26 11 0 18 339 11 405 -9z
m703 -10 c108 -59 166 -160 166 -290 0 -67 -4 -90 -28 -141 -33 -73 -93 -135
-161 -166 -71 -32 -217 -32 -291 1 -232 102 -261 437 -50 579 67 45 97 52 211
49 89 -2 106 -6 153 -32z m557 23 c3 -3 -10 -9 -29 -12 -18 -4 -39 -12 -45
-20 -7 -8 -11 -105 -11 -282 -1 -264 -1 -269 21 -286 11 -10 33 -18 47 -18 14
0 22 -3 18 -7 -11 -11 -308 -13 -326 -2 -12 6 -9 8 10 9 14 0 36 7 48 16 22
15 22 17 22 288 0 298 2 290 -59 302 -18 4 -28 10 -23 13 12 7 320 7 327 -1z
m411 -179 c80 -101 150 -188 155 -194 5 -5 9 53 9 152 0 138 -2 164 -17 182
-10 11 -28 22 -40 24 -23 3 -44 17 -27 18 111 6 204 3 204 -8 0 -7 -11 -13
-24 -13 -53 0 -56 -18 -56 -337 0 -161 -4 -293 -9 -293 -6 0 -333 394 -426
515 -14 18 -15 -1 -13 -213 3 -220 4 -234 23 -248 11 -9 33 -18 49 -21 25 -5
27 -7 10 -13 -24 -8 -202 -6 -211 3 -3 4 1 7 10 7 36 0 67 24 77 59 5 20 10
138 10 262 l0 225 -27 26 c-16 14 -39 29 -53 34 -23 8 -22 9 15 14 22 3 75 5
118 4 l78 -2 145 -183z m910 182 c7 -1 11 -30 10 -86 -1 -86 -12 -104 -29 -49
-24 72 -65 102 -142 100 l-40 -1 0 -273 0 -274 24 -19 c13 -10 34 -19 48 -19
13 0 22 -4 19 -9 -7 -10 -336 -11 -336 0 0 3 14 9 32 13 60 12 58 4 58 307 l0
279 -27 0 c-79 0 -144 -45 -158 -110 -13 -58 -25 -29 -25 58 l0 87 278 -2
c152 -1 282 -2 288 -2z m-5006 -86 c0 -90 -12 -110 -30 -47 -16 63 -73 102
-146 102 l-34 0 0 -279 c0 -278 0 -280 22 -295 12 -9 33 -16 46 -16 13 0 21
-4 18 -8 -6 -10 -322 -10 -332 1 -4 4 4 7 17 7 14 0 35 7 47 16 22 15 22 17
22 296 l0 281 -51 -6 c-68 -8 -97 -29 -122 -88 -12 -27 -25 -49 -29 -49 -4 0
-8 38 -8 85 l0 85 290 0 290 0 0 -85z m-696 -1034 l-1 -119 36 28 c54 43 111
44 138 3 14 -21 19 -55 23 -152 5 -122 6 -126 30 -138 22 -11 15 -13 -60 -13
-75 0 -82 2 -60 13 24 12 25 16 28 125 1 66 -2 120 -8 132 -16 30 -70 27 -101
-6 -27 -29 -30 -47 -23 -161 5 -78 7 -82 32 -92 21 -7 7 -9 -63 -10 -69 0 -84
3 -65 10 13 6 28 15 32 22 9 14 11 351 2 396 -5 25 -12 31 -33 32 -22 1 -18 4
24 24 28 13 55 24 60 24 6 1 10 -44 9 -118z m838 88 c23 -12 58 -11 58 1 0 6
5 10 10 10 6 0 10 -33 10 -80 0 -47 -4 -80 -10 -80 -5 0 -10 7 -10 15 0 37
-35 86 -77 106 -36 18 -48 19 -77 9 -42 -14 -58 -32 -58 -65 0 -37 25 -60 130
-122 127 -75 156 -126 117 -206 -33 -68 -106 -90 -217 -67 -47 10 -63 11 -66
2 -2 -7 -8 -12 -13 -12 -5 0 -9 36 -9 80 0 80 12 106 23 51 4 -17 19 -44 35
-62 23 -26 38 -32 81 -37 63 -6 96 9 110 50 17 48 -4 74 -109 139 -113 69
-129 84 -137 132 -7 49 2 79 33 111 42 41 121 53 176 25z m-994 2 c8 -1 12
-19 11 -58 -1 -57 -1 -58 -14 -27 -20 45 -37 55 -99 58 l-56 3 0 -206 c0 -113
4 -212 9 -219 4 -7 21 -17 37 -22 21 -6 -3 -8 -81 -8 -78 0 -102 2 -81 8 16 5
33 15 37 22 5 7 9 106 9 219 l0 206 -51 -4 c-65 -4 -88 -17 -96 -54 -3 -16
-10 -29 -15 -29 -6 0 -8 13 -4 31 3 17 6 43 6 58 l0 26 188 -1 c103 -1 193 -2
200 -3z m2718 -4 c4 -4 -4 -7 -17 -7 -14 0 -33 -6 -42 -13 -16 -11 -17 -33
-15 -217 l3 -205 80 -3 c94 -4 133 12 161 64 10 18 20 32 21 30 2 -2 -4 -31
-13 -65 l-17 -61 -191 0 c-169 1 -187 2 -160 14 18 8 34 24 37 37 4 13 7 106
7 206 0 194 -5 213 -51 213 -11 0 -18 4 -15 8 6 10 203 9 212 -1z m598 -27 c8
-51 7 -70 -4 -70 -5 0 -10 7 -10 15 0 9 -11 27 -25 40 -22 23 -32 25 -110 25
l-85 0 0 -95 0 -96 78 3 77 3 17 35 18 35 -1 -90 c-1 -81 -2 -87 -13 -62 -18
41 -32 47 -108 47 l-68 0 0 -104 c0 -103 0 -104 26 -109 27 -5 126 0 160 8 12
2 34 23 49 45 15 22 30 38 32 36 3 -2 -3 -29 -13 -60 l-18 -56 -190 0 c-189 0
-191 0 -156 18 l35 17 3 180 c4 227 1 244 -41 252 -59 12 -1 18 172 18 l169 0
6 -35z m415 15 c91 -30 141 -108 141 -220 0 -104 -39 -172 -125 -218 -36 -20
-57 -22 -205 -23 -91 -1 -154 0 -140 3 49 10 50 12 50 232 0 214 -3 231 -42
231 -10 0 -18 4 -18 9 0 15 286 4 339 -14z m-1298 -135 c28 0 39 -4 39 -15 0
-11 -11 -15 -40 -15 l-40 0 0 -107 c0 -60 3 -118 6 -130 7 -25 42 -31 62 -11
23 23 23 0 0 -25 -32 -36 -68 -43 -98 -19 -23 19 -25 26 -28 156 l-4 136 -24
0 c-14 0 -27 -6 -30 -14 -9 -23 -33 -27 -59 -10 -22 14 -25 14 -44 -7 -12 -13
-21 -30 -22 -38 -2 -71 1 -193 7 -202 3 -6 16 -14 28 -19 14 -6 -8 -9 -69 -9
-69 0 -84 3 -65 10 36 15 40 25 40 131 0 112 -9 145 -42 150 -18 2 -10 8 32
24 59 23 69 19 64 -24 l-3 -27 24 28 c36 41 71 51 94 28 19 -19 20 -19 55 15
20 19 44 49 53 67 l18 32 3 -52 3 -53 40 0z m-1773 -16 c13 -9 30 -31 38 -49
27 -65 26 -65 -101 -65 -130 0 -130 0 -96 -76 24 -52 55 -74 104 -74 38 0 77
27 89 61 3 8 8 11 12 8 13 -12 -20 -74 -53 -102 -59 -49 -159 -28 -196 42 -23
45 -29 110 -15 161 13 49 65 106 102 113 36 7 90 -2 116 -19z m602 -9 l0 -36
39 32 c28 22 50 31 76 31 37 0 75 -24 75 -49 0 -20 12 -15 43 16 33 34 81 44
118 25 38 -19 42 -34 48 -174 6 -120 7 -125 31 -137 22 -11 15 -13 -60 -13
-75 0 -82 2 -60 13 24 12 25 16 28 129 2 96 0 119 -13 132 -23 22 -67 20 -99
-5 -26 -21 -27 -22 -24 -132 3 -108 4 -112 28 -124 22 -11 15 -13 -60 -13 -75
0 -82 2 -60 13 24 12 25 16 28 129 2 96 0 119 -13 132 -23 22 -67 20 -99 -5
-26 -21 -27 -22 -24 -132 3 -108 4 -112 28 -124 22 -11 15 -13 -60 -13 -75 0
-82 2 -60 13 24 12 25 17 28 122 3 133 -1 159 -28 152 -38 -10 -20 11 28 31
63 27 62 27 62 -13z m643 26 c10 -1 29 -12 42 -26 24 -23 25 -30 25 -145 0
-124 2 -130 41 -109 19 10 19 9 9 -10 -14 -28 -55 -53 -77 -49 -10 2 -22 13
-28 25 l-9 21 -43 -25 c-71 -42 -133 -12 -133 65 0 45 41 83 121 114 60 23 61
23 55 56 -7 47 -24 64 -59 60 -32 -3 -42 -16 -52 -60 -4 -19 -12 -28 -26 -28
-39 0 -37 70 4 91 27 15 77 27 97 23 8 -1 23 -3 33 -3z"/>
<path d="M2146 3253 c-216 -45 -392 -185 -486 -385 -65 -137 -65 -137 -65
-933 l0 -720 685 0 685 0 82 28 c214 72 388 258 443 472 18 72 20 116 20 793
0 394 0 727 0 740 l0 22 -647 -1 c-530 -1 -661 -4 -717 -16z m1050 -345 l34
-38 0 -181 c0 -150 -3 -186 -16 -209 -51 -86 -191 -77 -230 15 -8 20 -14 67
-14 115 l0 80 -293 0 c-350 0 -370 -4 -452 -83 -82 -80 -85 -96 -85 -489 l0
-328 253 -1 c138 -1 279 -1 312 0 110 4 192 59 245 167 18 36 43 72 55 80 87
57 205 -5 205 -107 0 -102 -142 -283 -271 -346 -116 -56 -138 -58 -570 -58
-435 0 -432 0 -469 61 -19 30 -20 51 -20 472 0 418 1 443 21 508 42 137 138
255 259 319 122 63 130 64 588 62 l414 -2 34 -37z"/>
<path d="M6377 2686 c-26 -57 -47 -107 -47 -110 0 -3 41 -6 90 -6 56 0 90 4
90 11 0 8 -78 199 -84 207 -2 1 -24 -45 -49 -102z"/>
<path d="M5050 2820 l0 -140 45 0 c99 0 145 45 145 142 0 95 -47 138 -152 138
l-38 0 0 -140z"/>
<path d="M9620 2821 l0 -141 31 0 c73 0 115 55 113 147 -2 80 -30 114 -107
128 l-37 7 0 -141z"/>
<path d="M10275 2960 c-33 -13 -73 -62 -90 -110 -26 -70 -31 -231 -11 -310 9
-35 25 -78 34 -94 37 -64 129 -87 195 -49 72 41 110 199 89 365 -18 142 -69
209 -159 207 -21 0 -47 -4 -58 -9z"/>
<path d="M10070 1931 l-25 -7 -3 -206 -2 -205 39 -7 c135 -21 231 68 231 214
0 91 -36 162 -100 195 -33 17 -108 26 -140 16z"/>
</g>
</svg>
