<svg xmlns="http://www.w3.org/2000/svg" viewBox="0 0 660.67 214.94"><defs><style>.cls-1{fill:#fbba00;}.cls-2{fill:#fff;}</style></defs><title>3 logo</title><g id="Layer_1" data-name="Layer 1"><path class="cls-1" d="M135.88,167.23H66.23V90.86a43.19,43.19,0,0,1,43.14-43.15H179v76.37a43.19,43.19,0,0,1-43.14,43.15M76.53,156.92h59.35a32.87,32.87,0,0,0,32.83-32.84V58H109.37A32.88,32.88,0,0,0,76.53,90.86Z"/><path class="cls-1" d="M129.42,141.76H96.36a6.31,6.31,0,0,1-6.31-6.3V99a25.81,25.81,0,0,1,25.78-25.77h33.06a6.3,6.3,0,0,1,6.3,6.3V92.57a6.3,6.3,0,1,1-12.59,0V85.78H115.83A13.19,13.19,0,0,0,102.66,99v30.21h26.76a13.18,13.18,0,0,0,12.46-8.88,6.3,6.3,0,1,1,11.91,4.11,25.79,25.79,0,0,1-24.37,17.37"/><path class="cls-2" d="M482,122.37a14.72,14.72,0,0,1,3.53-.5,8.92,8.92,0,0,1,6.78,2.79,12.38,12.38,0,0,1,0,15.26,8.71,8.71,0,0,1-6.64,2.82,17.78,17.78,0,0,1-3.67-.49Zm3.77,21.57q6.81,0,10.14-3.65a11.71,11.71,0,0,0,3-8.16,12.26,12.26,0,0,0-1.66-6.42,9.56,9.56,0,0,0-4.39-4,20.89,20.89,0,0,0-8-1.19h-9.52v.64h.88a2.5,2.5,0,0,1,2,.76,4.85,4.85,0,0,1,.48,2.74v15.1a5.33,5.33,0,0,1-.38,2.56,2.31,2.31,0,0,1-2.1.94h-.88v.64ZM467,121.83a7.5,7.5,0,0,1,2.43.27,2.79,2.79,0,0,1,1.3,1,8.28,8.28,0,0,1,.8,2.54h.67l-.25-5.12h-18v.64h.82a2.7,2.7,0,0,1,2.08.69,5.11,5.11,0,0,1,.44,2.74v15.19a7.8,7.8,0,0,1-.2,2.26,1.47,1.47,0,0,1-.74.83,3.36,3.36,0,0,1-1.58.39h-.82v.64h18l2-5.86h-.69a13.57,13.57,0,0,1-2.18,3.23,4.41,4.41,0,0,1-1.73,1.08,11,11,0,0,1-2.88.27h-4a3,3,0,0,1-1.32-.19l-.48-.54a7.13,7.13,0,0,1-.14-1.88v-7.71h5.14a5.18,5.18,0,0,1,2.17.34,2.15,2.15,0,0,1,1,.95,9.24,9.24,0,0,1,.49,2.19H470v-8.14h-.63a3.93,3.93,0,0,1-1,2.79,4.17,4.17,0,0,1-2.68.61h-5.14v-9.25Zm-16.47,18.83a4.79,4.79,0,0,1-2,1.4,12.11,12.11,0,0,1-3.77.4h-1.71a11.6,11.6,0,0,1-2.69-.17l-.64-.54a4.89,4.89,0,0,1-.27-2V125.09a7.59,7.59,0,0,1,.27-2.63,2.14,2.14,0,0,1,1-.92,6.52,6.52,0,0,1,2.61-.34v-.64H432.78v.64h.88a2.49,2.49,0,0,1,2,.76,4.82,4.82,0,0,1,.49,2.74v15.08a5.62,5.62,0,0,1-.36,2.56,2.37,2.37,0,0,1-2.12,1h-.88v.64h18.1l2-6.34-.57-.12a11.74,11.74,0,0,1-1.8,3.18M427.27,123a18.9,18.9,0,0,1-1.11,2.39,9.91,9.91,0,0,1-1.77,2.15,6.33,6.33,0,0,1-1.93,1.28v.58H425V140a6.41,6.41,0,0,0,.37,2.53,2.6,2.6,0,0,0,1.12,1.26,3.07,3.07,0,0,0,1.55.44,3.71,3.71,0,0,0,2.27-.85A5.38,5.38,0,0,0,432,140.8h-.67a2.33,2.33,0,0,1-.83,1,2,2,0,0,1-1.1.35,1.39,1.39,0,0,1-1.13-.54,3.35,3.35,0,0,1-.44-2.06V129.36h3.69v-1.21H427.8V123Zm-12.1,4.72-4.77,1.93.17.62a3.44,3.44,0,0,1,1.21-.25,1.16,1.16,0,0,1,.75.24,1.24,1.24,0,0,1,.41.77,24.37,24.37,0,0,1,.11,3.28v6.12a7.66,7.66,0,0,1-.09,1.67,1.43,1.43,0,0,1-.6.88,3.26,3.26,0,0,1-1.79.38v.62h8.09v-.62A3.46,3.46,0,0,1,417,143a1.78,1.78,0,0,1-.8-.78,4.78,4.78,0,0,1-.32-2v-7.57a8.58,8.58,0,0,1,1.6-2.33l.67-.34a2.2,2.2,0,0,1,1.11.59,2.31,2.31,0,0,0,1.36.6,1.43,1.43,0,0,0,1.07-.47,1.57,1.57,0,0,0,.45-1.13,1.78,1.78,0,0,0-.62-1.34,2.21,2.21,0,0,0-1.57-.58q-2.09,0-4.07,3.55v-3.55ZM401.1,142.27a2.25,2.25,0,0,1-1.71-.82,3.16,3.16,0,0,1-.15-3.87,5.92,5.92,0,0,1,1.94-1.59,34.35,34.35,0,0,1,3.37-1.46v6a6.3,6.3,0,0,1-3.45,1.73m4,1.39a1.68,1.68,0,0,0,1.35.59q1.75,0,3.69-2.59v-1a10.24,10.24,0,0,1-1.4,1.26l-.48.12-.46-.18a1.14,1.14,0,0,1-.28-.67,23.67,23.67,0,0,1-.09-2.77V133.1a9.35,9.35,0,0,0-.31-3,3.24,3.24,0,0,0-1.5-1.67,7.4,7.4,0,0,0-3.45-.71,6.61,6.61,0,0,0-4.26,1.24,3.53,3.53,0,0,0-1.51,2.73,1.76,1.76,0,0,0,.4,1.22,1.35,1.35,0,0,0,1.05.45,1.39,1.39,0,0,0,1.06-.43,1.78,1.78,0,0,0,.4-1.23l0-1a1.78,1.78,0,0,1,.65-1.34,2.47,2.47,0,0,1,1.73-.59,2.73,2.73,0,0,1,2.18.88,5.16,5.16,0,0,1,.75,3.24v.63a37.32,37.32,0,0,0-5.82,2.51,6.84,6.84,0,0,0-2.46,2.21,3.79,3.79,0,0,0-.52,2,4.15,4.15,0,0,0,1.06,3,3.59,3.59,0,0,0,2.7,1.12,4.77,4.77,0,0,0,2-.43,26.52,26.52,0,0,0,3.05-2.18,3.17,3.17,0,0,0,.51,2m-31.65-16h-.74l-4.76,1.93.27.62a3.28,3.28,0,0,1,1.15-.25,1.09,1.09,0,0,1,.71.21,1.49,1.49,0,0,1,.38.78,22.75,22.75,0,0,1,.15,3.37v6a5.74,5.74,0,0,1-.22,2,1.55,1.55,0,0,1-.66.74,3.55,3.55,0,0,1-1.51.23v.62H376v-.62a4.18,4.18,0,0,1-1.71-.23,1.56,1.56,0,0,1-.64-.7,5.92,5.92,0,0,1-.22-2v-8.46a7,7,0,0,1,2.21-1.71,3.87,3.87,0,0,1,1.85-.5,2.44,2.44,0,0,1,2.12,1.1,5.13,5.13,0,0,1,.57,2.78v6.79a8.89,8.89,0,0,1-.09,1.71,1.59,1.59,0,0,1-.68.93,3.63,3.63,0,0,1-1.8.31v.62h8v-.62a3.84,3.84,0,0,1-1.7-.27,1.48,1.48,0,0,1-.69-.66,6.67,6.67,0,0,1-.17-2v-7.53l0-.74,0-.19a9.57,9.57,0,0,1,2.23-1.7,4,4,0,0,1,1.83-.46,2.32,2.32,0,0,1,2.15,1.1,5.64,5.64,0,0,1,.47,2.73v6.79a10.35,10.35,0,0,1-.07,1.67,1.49,1.49,0,0,1-.56.88,2.71,2.71,0,0,1-1.59.4h-.33v.62h7.79v-.62a3.14,3.14,0,0,1-1.51-.27,1.46,1.46,0,0,1-.64-.64,6.24,6.24,0,0,1-.22-2v-6.79a9.6,9.6,0,0,0-.38-3.14,4.28,4.28,0,0,0-1.55-2.11,4,4,0,0,0-2.23-.65,5.37,5.37,0,0,0-2.52.65,11.84,11.84,0,0,0-3,2.71,4.29,4.29,0,0,0-1.43-2.5,4,4,0,0,0-2.55-.86,4.79,4.79,0,0,0-1.78.36,6,6,0,0,0-1.67,1c-.21.17-.88.83-2,2ZM363.54,120a2.11,2.11,0,0,1-.45,1.07,1,1,0,0,1-.74.27,4,4,0,0,1-1.36-.43A9.81,9.81,0,0,0,357,120a6.86,6.86,0,0,0-4.91,1.81,5.77,5.77,0,0,0-1.94,4.34,5.46,5.46,0,0,0,.66,2.66,7.19,7.19,0,0,0,1.93,2.2,35.55,35.55,0,0,0,4.26,2.69,36.93,36.93,0,0,1,3.67,2.2,5.1,5.1,0,0,1,1.48,1.63,3.73,3.73,0,0,1,.47,1.74,3.5,3.5,0,0,1-1.25,2.69,4.85,4.85,0,0,1-3.4,1.14,7.15,7.15,0,0,1-3.42-.83,5.65,5.65,0,0,1-2.32-2.08,11.24,11.24,0,0,1-1.21-3.76h-.64v8h.64a2,2,0,0,1,.37-1.07l.68-.26a10,10,0,0,1,2.13.54,20.37,20.37,0,0,0,2.22.63,11.44,11.44,0,0,0,1.91.16,7.42,7.42,0,0,0,5.3-1.93,6.05,6.05,0,0,0,2.06-4.58,5.75,5.75,0,0,0-.65-2.67,6.47,6.47,0,0,0-1.84-2.21,34.23,34.23,0,0,0-4.48-2.7,19.22,19.22,0,0,1-5.08-3.45,3,3,0,0,1-.74-2,3.33,3.33,0,0,1,1.17-2.49,4.17,4.17,0,0,1,3-1.09,6.3,6.3,0,0,1,3.06.8,5.85,5.85,0,0,1,2.29,2.2,10.13,10.13,0,0,1,1.11,3.7h.64V120Zm-26.15,10a3.54,3.54,0,0,1,2.56-1.11,3.24,3.24,0,0,1,1.79.55A3.47,3.47,0,0,1,343,131a6.91,6.91,0,0,1,.36,2.14h-7.31a4.85,4.85,0,0,1,1.32-3.1m9.6,4.1a6.43,6.43,0,0,0-1.71-4.69,5.87,5.87,0,0,0-4.36-1.75,6.77,6.77,0,0,0-5.22,2.27,9,9,0,0,0-2.08,6.32,8.51,8.51,0,0,0,2,6,6.37,6.37,0,0,0,4.87,2.21,5.6,5.6,0,0,0,4.36-1.94,8.27,8.27,0,0,0,2.11-4.3l-.54-.34a6.4,6.4,0,0,1-1.92,2.92,4.41,4.41,0,0,1-2.7.85,5.17,5.17,0,0,1-4.05-2,8.1,8.1,0,0,1-1.71-5.51ZM319.6,119.42l-4.72,1.93.24.61a4,4,0,0,1,1.17-.28,1.09,1.09,0,0,1,.72.23,1.4,1.4,0,0,1,.39.84,23.22,23.22,0,0,1,.13,3.33v14.29a6,6,0,0,1-.2,2,1.21,1.21,0,0,1-.55.65,3.52,3.52,0,0,1-1.66.33v.62H323v-.62a3.84,3.84,0,0,1-1.7-.27,1.47,1.47,0,0,1-.67-.66,6.54,6.54,0,0,1-.18-2V132a8.15,8.15,0,0,1,2.19-1.81,4,4,0,0,1,1.75-.45,2.42,2.42,0,0,1,1.42.4,2.31,2.31,0,0,1,.85,1.22,13.29,13.29,0,0,1,.27,3.4v5.58a14.93,14.93,0,0,1-.05,1.62,1.84,1.84,0,0,1-.61,1,2.58,2.58,0,0,1-1.53.33h-.36v.62h7.76v-.62a3.33,3.33,0,0,1-1.52-.24l-.59-.66a5.83,5.83,0,0,1-.24-2v-5.58a16.41,16.41,0,0,0-.33-4,4.36,4.36,0,0,0-1.43-2.33,3.69,3.69,0,0,0-2.31-.74,4.81,4.81,0,0,0-2.24.59,13.27,13.27,0,0,0-3,2.7V119.42Zm-25.46,1.14-.27,5.48h.65a5,5,0,0,1,.76-2.51,3.1,3.1,0,0,1,1.53-1.26,7.91,7.91,0,0,1,2.33-.24H302v17.86a5.16,5.16,0,0,1-.38,2.52,2.35,2.35,0,0,1-2.1.89h-.83v.64h9.92v-.64h-.81a2.59,2.59,0,0,1-2-.72,4.78,4.78,0,0,1-.47-2.69V122h3.3a4.9,4.9,0,0,1,2.33.47,3.45,3.45,0,0,1,1.42,1.48,6.61,6.61,0,0,1,.52,2.06h.66l-.26-5.48Z"/><path class="cls-2" d="M227.44,70.46V81.1h-.88a11.3,11.3,0,0,0-3.71-6.38,9.46,9.46,0,0,0-6.16-2.22,9.11,9.11,0,0,0-5.27,1.65,9.65,9.65,0,0,0-3.51,4.33,19.53,19.53,0,0,0-1.42,7.6,25.23,25.23,0,0,0,1,7.5,10,10,0,0,0,3.26,5.12,9.09,9.09,0,0,0,5.75,1.73,11.19,11.19,0,0,0,5.31-1.27,18.46,18.46,0,0,0,5.08-4.37v2.65a16.52,16.52,0,0,1-5.38,3.9,16.26,16.26,0,0,1-6.53,1.21,18.76,18.76,0,0,1-8.72-2,14,14,0,0,1-5.89-5.66,15.82,15.82,0,0,1-2.07-7.86,16.27,16.27,0,0,1,2.3-8.32,16.1,16.1,0,0,1,6.2-6.11,16.79,16.79,0,0,1,8.29-2.18A18.77,18.77,0,0,1,222,71.87a10.55,10.55,0,0,0,2.65.81,1.68,1.68,0,0,0,1.25-.53,2.85,2.85,0,0,0,.69-1.69Z"/><path class="cls-2" d="M242.29,87.87v8.6a9.24,9.24,0,0,0,.31,3.13,2.24,2.24,0,0,0,1.07,1,7.19,7.19,0,0,0,2.88.39v.83H230.84V101a7.13,7.13,0,0,0,2.89-.4,2.3,2.3,0,0,0,1.06-1,9.22,9.22,0,0,0,.3-3.12V76.55a9.34,9.34,0,0,0-.3-3.13,2.17,2.17,0,0,0-1.08-1,7.13,7.13,0,0,0-2.87-.39v-.84H245.1a30.61,30.61,0,0,1,8.14.78,8.15,8.15,0,0,1,4.21,2.83,7.61,7.61,0,0,1,1.63,4.86,7.25,7.25,0,0,1-2.44,5.61,10.09,10.09,0,0,1-4.37,2.11l7.38,10.39a16.3,16.3,0,0,0,2.06,2.51,4,4,0,0,0,2.15.77v.83H254.2l-9.89-14Zm0-15.05V86.26h1.29a14.27,14.27,0,0,0,4.71-.58,4.65,4.65,0,0,0,2.45-2.08,7.57,7.57,0,0,0,.9-3.93q0-3.49-1.64-5.18t-5.29-1.67Z"/><path class="cls-2" d="M276.08,72.93V85.42h.61a4.87,4.87,0,0,0,4.24-1.83,11.33,11.33,0,0,0,1.67-5.41h.86V94.25h-.86a11.84,11.84,0,0,0-1.15-4.3,4.86,4.86,0,0,0-2-2.25,7.6,7.6,0,0,0-3.35-.58v8.65a12.83,12.83,0,0,0,.21,3.1,1.93,1.93,0,0,0,.81.92,3.67,3.67,0,0,0,1.9.37h1.83a11.09,11.09,0,0,0,6.9-2,11.21,11.21,0,0,0,3.72-6.07h.83l-1.38,9.75H264.38V101h1a4.23,4.23,0,0,0,2.15-.48,2,2,0,0,0,.9-1.09,9.15,9.15,0,0,0,.25-2.85V76.41a15.57,15.57,0,0,0-.11-2.55,2.12,2.12,0,0,0-.84-1.22A3.9,3.9,0,0,0,265.4,72h-1v-.83h25.69v9.07h-.86a11.15,11.15,0,0,0-1.85-4.78A6.84,6.84,0,0,0,284,73.34a18.26,18.26,0,0,0-4.75-.41Z"/><path class="cls-2" d="M313.65,93.12H302.81l-1.29,3a6.51,6.51,0,0,0-.63,2.47,2,2,0,0,0,1,1.9,8.65,8.65,0,0,0,3,.55v.83h-10.2V101a4.59,4.59,0,0,0,2.71-1.37A18.17,18.17,0,0,0,300.07,95l11-24.49h.43L322.54,95.7a15.68,15.68,0,0,0,2.6,4.5,3.6,3.6,0,0,0,2.18.82v.83H312.47V101h.61a4.69,4.69,0,0,0,2.52-.5,1.21,1.21,0,0,0,.49-1,2.77,2.77,0,0,0-.13-.84c0-.14-.26-.7-.68-1.7Zm-.77-1.68-4.57-10.57L303.6,91.44Z"/><path class="cls-2" d="M353.64,71.16v8.31h-.81a13.23,13.23,0,0,0-1.61-4.13,6.19,6.19,0,0,0-2.43-2,7.71,7.71,0,0,0-3-.41H343.5V96.6a9.89,9.89,0,0,0,.26,3,2.39,2.39,0,0,0,1,1,4.16,4.16,0,0,0,2.07.44h1v.83H331.8V101h1a4.23,4.23,0,0,0,2.15-.48,2.17,2.17,0,0,0,.93-1.09,9.15,9.15,0,0,0,.25-2.85V72.93h-2.22a6.5,6.5,0,0,0-4.51,1.31,8.72,8.72,0,0,0-2.49,5.23h-.86V71.16Z"/><path class="cls-2" d="M372.29,101v.83H356.24V101h1a4.2,4.2,0,0,0,2.15-.48,2.09,2.09,0,0,0,.91-1.09,9.63,9.63,0,0,0,.24-2.85V76.42a10.37,10.37,0,0,0-.24-2.94,2.33,2.33,0,0,0-1-1,4.13,4.13,0,0,0-2.05-.44h-1v-.84h16.05V72h-1a4.2,4.2,0,0,0-2.15.48,2.19,2.19,0,0,0-.93,1.08,9.27,9.27,0,0,0-.25,2.86V96.6a9.89,9.89,0,0,0,.26,3,2.39,2.39,0,0,0,1,1,4.13,4.13,0,0,0,2,.44Z"/><path class="cls-2" d="M406.35,71.16V72a5,5,0,0,0-3,1.79,27.89,27.89,0,0,0-2.83,5.32L390,102.55h-.74L378.69,78.16A30.51,30.51,0,0,0,376.15,73a3.66,3.66,0,0,0-2.44-1v-.84h14.72V72h-.5a5.19,5.19,0,0,0-2.72.5,1.12,1.12,0,0,0-.52,1,3.19,3.19,0,0,0,.18,1c.12.37.53,1.36,1.22,3l6.54,15.27,6.07-13.6c.72-1.64,1.17-2.75,1.34-3.3a5.38,5.38,0,0,0,.24-1.43,2.07,2.07,0,0,0-.36-1.2,2.17,2.17,0,0,0-1.06-.79,7.07,7.07,0,0,0-2.58-.39v-.84Z"/><path class="cls-2" d="M419.45,72.93V85.42h.61a4.87,4.87,0,0,0,4.24-1.83A11.33,11.33,0,0,0,426,78.18h.86V94.25H426a12.05,12.05,0,0,0-1.14-4.3,4.88,4.88,0,0,0-2-2.25,7.6,7.6,0,0,0-3.35-.58v8.65a12.09,12.09,0,0,0,.22,3.1,1.86,1.86,0,0,0,.8.92,3.67,3.67,0,0,0,1.9.37h1.83a11.09,11.09,0,0,0,6.9-2,11.21,11.21,0,0,0,3.72-6.07h.84l-1.38,9.75H407.75V101h1a4.23,4.23,0,0,0,2.15-.48,2,2,0,0,0,.9-1.09,9.15,9.15,0,0,0,.25-2.85V76.41a15.57,15.57,0,0,0-.11-2.55,2.12,2.12,0,0,0-.84-1.22,3.88,3.88,0,0,0-2.35-.64h-1v-.83h25.69v9.07h-.86a11,11,0,0,0-1.85-4.78,6.84,6.84,0,0,0-3.36-2.12,18.21,18.21,0,0,0-4.75-.41Z"/><path class="cls-2" d="M461.84,88v8.51a9.24,9.24,0,0,0,.31,3.13,2.22,2.22,0,0,0,1.08,1,7.2,7.2,0,0,0,2.87.39v.83H450.5V101a7.13,7.13,0,0,0,2.89-.4,2.3,2.3,0,0,0,1.06-1,9.12,9.12,0,0,0,.31-3.12V76.55a9.24,9.24,0,0,0-.31-3.13,2.15,2.15,0,0,0-1.07-1A7.19,7.19,0,0,0,450.5,72v-.83h13.38c4.4,0,7.57.78,9.48,2.35a7.3,7.3,0,0,1,2.88,5.88,7.53,7.53,0,0,1-1.86,5.12,9.46,9.46,0,0,1-5.12,2.89,34.22,34.22,0,0,1-7.42.55m0-15V86.19c.5,0,.88,0,1.13,0a5.48,5.48,0,0,0,4.26-1.64,7.41,7.41,0,0,0,1.49-5.08q0-3.42-1.49-5a5.89,5.89,0,0,0-4.46-1.58Z"/><path class="cls-2" d="M495.54,70.73q7.33-.27,11.92,4.28A15.41,15.41,0,0,1,512,86.4a16.35,16.35,0,0,1-3.42,10.27q-4.51,5.88-12.79,5.88T483,96.94a16.23,16.23,0,0,1-3.58-10.52A15.31,15.31,0,0,1,484.1,75a14.81,14.81,0,0,1,11.44-4.29m.27,1.45c-2.8,0-4.94,1.44-6.4,4.3-1.2,2.36-1.79,5.74-1.79,10.14q0,7.86,2.76,11.61a6.3,6.3,0,0,0,5.39,2.63,6.42,6.42,0,0,0,3.89-1.14,9.23,9.23,0,0,0,3.1-4.62,25.73,25.73,0,0,0,1.11-8.3,27.71,27.71,0,0,0-1.13-9.11,8.91,8.91,0,0,0-2.89-4.26,6.8,6.8,0,0,0-4-1.25"/><path class="cls-2" d="M530.66,101v.83h-16V101h1a4.24,4.24,0,0,0,2.16-.48,2,2,0,0,0,.9-1.09,9.15,9.15,0,0,0,.25-2.85V76.42a9.85,9.85,0,0,0-.25-2.94,2.23,2.23,0,0,0-1-1,4.08,4.08,0,0,0-2-.44h-1v-.84h16V72h-1a4.25,4.25,0,0,0-2.15.48,2.12,2.12,0,0,0-.92,1.08,9.27,9.27,0,0,0-.25,2.86V96.6a9.55,9.55,0,0,0,.26,3,2.34,2.34,0,0,0,1,1,4.06,4.06,0,0,0,2,.44Z"/><path class="cls-2" d="M543.27,71.16l15.14,19V77c0-1.84-.26-3.09-.79-3.74A4.36,4.36,0,0,0,554,72v-.84h10.14V72a8,8,0,0,0-2.62.64,2.66,2.66,0,0,0-1,1.3,8.82,8.82,0,0,0-.37,3.07v25.54h-.77L538.56,77v19.5c0,1.77.41,3,1.22,3.58a4.39,4.39,0,0,0,2.77.93h.72v.83H532.38V101a5,5,0,0,0,3.53-1,4.86,4.86,0,0,0,1-3.47V74.85l-.65-.81a6.08,6.08,0,0,0-1.72-1.61,5.32,5.32,0,0,0-2.16-.43v-.84Z"/><path class="cls-2" d="M594.44,71.16v8.31h-.81A13.23,13.23,0,0,0,592,75.34a6.23,6.23,0,0,0-2.42-2,7.81,7.81,0,0,0-3-.41H584.3V96.6a9.89,9.89,0,0,0,.26,3,2.34,2.34,0,0,0,1,1,4.16,4.16,0,0,0,2.07.44h1v.83H572.6V101h1a4.2,4.2,0,0,0,2.15-.48,2.17,2.17,0,0,0,.93-1.09A9.49,9.49,0,0,0,577,96.6V72.93h-2.22a6.45,6.45,0,0,0-4.5,1.31,8.61,8.61,0,0,0-2.49,5.23h-.87V71.16Z"/></g></svg>