<svg xmlns="http://www.w3.org/2000/svg" xmlns:xlink="http://www.w3.org/1999/xlink" viewBox="0 0 660.67 214.94"><defs><style>.cls-1{isolation:isolate;}.cls-2{fill:url(#linear-gradient);}.cls-3{fill:#c9bb7f;}.cls-4{fill:#1d1d1b;}.cls-5{fill:url(#linear-gradient-2);}.cls-6{fill:url(#linear-gradient-3);}.cls-14,.cls-7{opacity:0.3;mix-blend-mode:overlay;}.cls-14,.cls-8{fill:#fff;}.cls-15,.cls-9{opacity:0.4;mix-blend-mode:multiply;}.cls-10{fill:url(#linear-gradient-4);}.cls-11{fill:url(#linear-gradient-5);}.cls-12{fill:url(#linear-gradient-6);}.cls-13,.cls-15{fill:url(#linear-gradient-7);}</style><linearGradient id="linear-gradient" x1="195.84" y1="36.19" x2="195.84" y2="181.06" gradientUnits="userSpaceOnUse"><stop offset="0" stop-color="#dcd8c9"/><stop offset="0.12" stop-color="#dad5c3"/><stop offset="0.29" stop-color="#d5ceb2"/><stop offset="0.47" stop-color="#cdc397"/><stop offset="0.54" stop-color="#cabe8c"/><stop offset="0.7" stop-color="#aca37b"/><stop offset="0.89" stop-color="#8e876a"/><stop offset="1" stop-color="#827d64"/></linearGradient><linearGradient id="linear-gradient-2" x1="223.6" y1="104.69" x2="223.6" y2="138.09" xlink:href="#linear-gradient"/><linearGradient id="linear-gradient-3" x1="181.57" y1="146.49" x2="181.57" y2="178.1" xlink:href="#linear-gradient"/><linearGradient id="linear-gradient-4" x1="200.67" y1="104.61" x2="200.67" y2="167.21" xlink:href="#linear-gradient"/><linearGradient id="linear-gradient-5" x1="191.47" y1="44.16" x2="191.47" y2="44.86" xlink:href="#linear-gradient"/><linearGradient id="linear-gradient-6" x1="163.9" y1="36.19" x2="163.9" y2="181.06" xlink:href="#linear-gradient"/><linearGradient id="linear-gradient-7" x1="214.11" y1="36.19" x2="214.11" y2="181.06" xlink:href="#linear-gradient"/></defs><title>3 logo</title><g class="cls-1"><g id="Layer_1" data-name="Layer 1"><path class="cls-2" d="M238,105,173.5,177.28H153.71V37.48H209.2v7.36H172.88v121.4l54.48-61.07Z"/><rect class="cls-3" x="418.77" y="106.8" width="87.68" height="28.61"/><path class="cls-4" d="M272.63,66.38H253.9c-5.31,0-8,2.69-8,8V87.5c0,5.31,2.69,8,8,8h18.73c5.31,0,8-2.69,8-8V87h-2.89v.51c0,3.49-1.63,5.11-5.12,5.11H253.9c-3.49,0-5.12-1.62-5.12-5.11V74.38c0-3.49,1.63-5.11,5.12-5.11h18.73c3.49,0,5.12,1.62,5.12,5.11v.51h2.89v-.51C280.64,69.07,277.94,66.38,272.63,66.38Z"/><path class="cls-4" d="M319.06,87.5v8H322v-8c0-3-.91-5.25-2.69-6.56C321,79.63,322,77.43,322,74.38c0-5.31-2.69-8-8-8H287.21V95.5h2.88V82.38H314C317.44,82.38,319.06,84,319.06,87.5Zm0-13.12c0,3.49-1.62,5.12-5.11,5.12H290.09V69.27H314C317.44,69.27,319.06,70.89,319.06,74.38Z"/><polygon class="cls-4" points="341.17 95.5 344.05 95.5 344.05 81.63 362.51 66.38 357.98 66.38 342.61 79.06 327.24 66.38 322.71 66.38 341.17 81.63 341.17 95.5"/><path class="cls-4" d="M398.26,87.5c0-5.31-2.69-8-8-8H371.52c-3.49,0-5.12-1.63-5.12-5.12s1.63-5.11,5.12-5.11h18.74c3.48,0,5.11,1.62,5.11,5.11v.51h2.89v-.51c0-5.31-2.69-8-8-8H371.52c-5.31,0-8,2.69-8,8s2.69,8,8,8h18.74c3.48,0,5.11,1.63,5.11,5.12s-1.63,5.11-5.11,5.11H371.52c-3.49,0-5.12-1.62-5.12-5.11V87h-2.88v.51c0,5.31,2.69,8,8,8h18.74C395.57,95.5,398.26,92.81,398.26,87.5Z"/><polygon class="cls-4" points="436.14 66.38 401.4 66.38 401.4 69.27 417.33 69.27 417.33 95.5 420.21 95.5 420.21 69.27 436.14 69.27 436.14 66.38"/><path class="cls-4" d="M430.89,95.5h3.39L439,88h21.32l4.66,7.5h3.39l-18.71-30Zm9.85-10.38,8.87-14.24,8.87,14.24Z"/><polygon class="cls-4" points="475.11 92.61 475.11 66.38 472.22 66.38 472.22 95.5 506.96 95.5 506.96 92.61 475.11 92.61"/><polygon class="cls-4" points="248.78 106.8 245.9 106.8 245.9 135.92 280.64 135.92 280.64 133.04 248.78 133.04 248.78 106.8"/><rect class="cls-4" x="285.88" y="106.8" width="2.89" height="29.12"/><path class="cls-4" d="M322.07,106.8H303.34c-5.31,0-8,2.7-8,8v13.11c0,5.31,2.69,8,8,8h18.73c5.31,0,8-2.69,8-8v-8H310.33v2.89h16.86v5.11c0,3.49-1.63,5.12-5.12,5.12H303.34c-3.49,0-5.12-1.63-5.12-5.12V114.81c0-3.49,1.63-5.12,5.12-5.12h18.73c3.49,0,5.12,1.63,5.12,5.12v.5h2.89v-.5C330.08,109.5,327.38,106.8,322.07,106.8Z"/><polygon class="cls-4" points="368.5 119.92 339.54 119.92 339.54 106.8 336.65 106.8 336.65 135.92 339.54 135.92 339.54 122.81 368.5 122.81 368.5 135.92 371.39 135.92 371.39 106.8 368.5 106.8 368.5 119.92"/><polygon class="cls-4" points="377.96 109.69 393.89 109.69 393.89 135.92 396.77 135.92 396.77 109.69 412.7 109.69 412.7 106.8 377.96 106.8 377.96 109.69"/><polygon class="cls-5" points="209.22 137.22 237.97 104.99 227.36 105.17 209.22 125.5 209.22 137.22"/><polygon class="cls-6" points="172.88 177.28 173.5 177.28 190.25 158.49 190.25 146.77 172.88 166.24 172.88 177.28"/><g class="cls-7"><rect class="cls-8" x="171.61" y="44.84" width="1.27" height="132.44"/><polygon class="cls-8" points="207.93 38.75 207.93 44.84 209.2 44.84 209.2 37.48 153.71 37.48 153.71 38.75 207.93 38.75"/><polygon class="cls-8" points="209.22 137.06 209.22 137.22 237.97 104.99 227.36 105.17 226.23 106.44 236.7 106.26 209.22 137.06"/><polygon class="cls-8" points="190.25 158.34 173.36 177.28 173.5 177.28 190.25 158.49 190.25 158.34"/></g><g class="cls-9"><polygon class="cls-10" points="173.73 165.57 227.62 105.17 227.36 105.17 173.73 165.29 173.73 165.57"/><rect class="cls-11" x="173.73" y="44.17" width="35.47" height="0.67"/><polygon class="cls-12" points="154.55 176.61 154.55 37.48 153.71 37.48 153.71 177.28 173.5 177.28 174.09 176.61 154.55 176.61"/></g><path class="cls-13" d="M238,170.1v7.36H190.25V48.28h19V170.1Z"/><polygon class="cls-14" points="209.22 170.1 209.22 49.93 209.22 48.28 190.25 48.28 190.25 49.55 207.96 49.55 207.96 51.2 207.96 171.37 236.7 171.37 236.7 177.46 237.97 177.46 237.97 170.1 209.22 170.1"/><polygon class="cls-15" points="191.1 176.79 191.1 48.28 190.25 48.28 190.25 177.46 237.97 177.46 237.97 176.79 191.1 176.79"/><path class="cls-4" d="M438.64,114.62a5.87,5.87,0,0,0-2.59-.35h-3.27c-1.87,0-2.3-.22-2.3-1.21s.34-1.19,2.22-1.19h3.12c1.72,0,2.07.21,2.07,1.2v.3h1.47V113a2,2,0,0,0-.69-1.74c-.7-.52-1.81-.56-3.56-.56H433c-2.61,0-4.12.4-4.12,2.45,0,1.73,1,2.41,3.49,2.41h3.86c1.38,0,1.82.16,1.82,1.18s-.5,1.41-2.8,1.41H432.9c-1.92,0-2.48-.27-2.48-1.2,0-.09,0-.21,0-.36v-.29H429v.25c0,.2,0,.38,0,.53,0,1.64,1,2.31,3.59,2.31h3.1c2.51,0,4-.42,4-2.6C439.6,115.75,439.43,115.05,438.64,114.62Z"/><polygon class="cls-4" points="449.68 117.72 444.29 110.76 442.37 110.76 442.37 119.25 443.85 119.25 443.85 112.44 449.12 119.18 449.18 119.25 450.23 119.25 455.55 112.44 455.55 119.25 457.03 119.25 457.03 110.76 455.06 110.76 449.68 117.72"/><path class="cls-4" d="M466.1,110.76h-1.72l-5.52,8.49h1.73l1.17-1.79h7l1.19,1.79h1.64l-5.47-8.4Zm1.92,5.5h-5.49l2.72-4.19Z"/><path class="cls-4" d="M480.17,110.76h-6.71v8.49H475v-3.19h5.35c1.61,0,2,.12,2,1.21v2h1.51v-2.19a1.56,1.56,0,0,0-1-1.59,1.48,1.48,0,0,0,1.09-1.62v-1C484,111.07,482.78,110.76,480.17,110.76Zm2.21,2.43v.39c0,.94-.23,1.2-1.85,1.2H475V112h5.56C482.15,112,482.38,112.24,482.38,113.19Z"/><polygon class="cls-4" points="485.75 110.76 485.75 112.01 490.27 112.01 490.27 119.25 491.78 119.25 491.78 112.01 496.3 112.01 496.3 110.76 485.75 110.76"/><polygon class="cls-4" points="463.04 123.07 461.53 123.07 461.53 131.56 470.13 131.56 470.13 130.32 463.04 130.32 463.04 123.07"/><polygon class="cls-4" points="472.42 131.56 481.79 131.56 481.79 130.31 473.9 130.31 473.9 127.78 481.46 127.78 481.46 126.53 473.9 126.53 473.9 124.32 481.79 124.32 481.79 123.07 472.42 123.07 472.42 131.56"/><path class="cls-4" d="M494.64,123.63a6.09,6.09,0,0,0-3.26-.56h-7.06v8.49h7.06a6,6,0,0,0,3.26-.56,2.7,2.7,0,0,0,1.15-2.58v-2.21A2.7,2.7,0,0,0,494.64,123.63Zm-2.53,6.68h-6.28v-6h6.28c1.68,0,2.12.37,2.12,1.81v2.38C494.23,129.88,493.71,130.31,492.11,130.31Z"/></g></g></svg>