<?xml version="1.0" standalone="no"?>
<!DOCTYPE svg PUBLIC "-//W3C//DTD SVG 20010904//EN"
 "http://www.w3.org/TR/2001/REC-SVG-20010904/DTD/svg10.dtd">
<svg version="1.0" xmlns="http://www.w3.org/2000/svg"
 width="512.000000pt" height="512.000000pt" viewBox="0 0 512.000000 512.000000"
 preserveAspectRatio="xMidYMid meet">
<metadata>
Created by potrace 1.16, written by Peter Selinger 2001-2019
</metadata>
<g transform="translate(0.000000,512.000000) scale(0.100000,-0.100000)"
fill="#000000" stroke="none">
<path d="M2378 3590 l-148 -75 0 -175 c0 -96 4 -180 8 -187 4 -6 74 -43 155
-82 l149 -71 144 73 144 72 -3 187 -2 188 -150 72 -150 73 -147 -75z m419
-247 c0 -84 -4 -153 -8 -153 -4 0 -14 7 -23 15 -8 9 -18 15 -21 15 -3 0 -48
20 -100 45 l-95 46 0 155 0 154 124 -62 124 -62 -1 -153z m-287 117 l0 -150
-120 -60 -120 -60 0 153 0 152 113 57 c61 31 115 57 120 57 4 1 7 -66 7 -149z
m142 -241 l121 -61 -115 -59 -116 -59 -121 58 c-66 31 -121 59 -121 62 0 4
215 117 228 119 1 1 57 -26 124 -60z"/>
<path d="M3299 2686 c-124 -33 -190 -126 -160 -226 25 -84 82 -120 231 -145
116 -20 145 -37 145 -90 0 -48 -34 -76 -102 -82 -85 -9 -176 32 -194 86 -4 10
-16 8 -57 -13 -56 -29 -59 -34 -38 -74 19 -36 52 -65 106 -93 39 -20 59 -24
150 -24 85 0 114 4 150 21 113 52 158 164 108 264 -36 70 -110 108 -247 125
-30 3 -69 12 -88 20 -28 12 -33 19 -33 48 0 45 25 66 87 74 60 7 118 -10 155
-44 l26 -25 49 28 c26 15 50 29 51 30 2 1 -7 17 -20 34 -58 80 -201 118 -319
86z"/>
<path d="M97 2673 c-4 -3 -7 -33 -7 -65 l0 -58 815 0 815 0 0 65 0 65 -808 0
c-445 0 -812 -3 -815 -7z"/>
<path d="M1800 2615 l0 -65 240 0 240 0 0 65 0 65 -240 0 -240 0 0 -65z"/>
<path d="M2360 2485 l0 -195 70 0 70 0 0 91 0 92 92 -127 c54 -74 99 -126 109
-126 9 0 56 53 110 124 l94 125 3 -214 2 -213 61 -4 c33 -1 63 -1 65 1 2 2 4
148 4 323 l0 318 -69 0 -69 0 -99 -135 -99 -135 -99 135 -99 135 -73 0 -73 0
0 -195z"/>
<path d="M90 2355 l0 -65 810 0 810 0 0 65 0 65 -810 0 -810 0 0 -65z"/>
<path d="M1800 2355 l0 -65 235 0 235 0 0 65 0 65 -235 0 -235 0 0 -65z"/>
<path d="M90 2105 l0 -65 815 0 815 0 0 65 0 65 -815 0 -815 0 0 -65z"/>
<path d="M1800 2105 l0 -65 455 0 455 0 0 65 0 65 -455 0 -455 0 0 -65z"/>
<path d="M3700 2140 c-29 -29 -26 -74 6 -99 53 -42 114 -13 114 53 0 60 -77
89 -120 46z"/>
<path d="M1260 1930 c-27 -27 -26 -74 2 -100 47 -44 118 -11 118 54 0 60 -77
89 -120 46z"/>
<path d="M1574 1941 c-194 -47 -232 -283 -59 -365 20 -10 84 -26 143 -36 119
-22 149 -40 138 -84 -19 -74 -166 -87 -245 -20 l-29 24 -46 -22 c-26 -12 -46
-29 -46 -38 0 -24 59 -76 113 -100 87 -39 233 -28 307 22 58 40 75 72 75 143
0 117 -66 169 -249 195 -94 14 -130 36 -134 81 -5 53 30 80 111 86 77 7 142
-18 178 -66 l22 -30 51 26 c28 15 52 28 54 29 2 1 -3 15 -12 31 -24 48 -90
101 -147 117 -54 16 -170 20 -225 7z"/>
<path d="M2020 1620 l0 -320 74 0 c73 0 75 1 98 33 12 17 55 76 94 130 l72 97
96 -130 96 -130 75 0 75 0 0 190 0 190 -65 0 -64 0 -3 -90 -3 -91 -94 126
c-59 79 -100 125 -111 125 -11 0 -52 -46 -111 -125 l-94 -126 -3 221 -2 220
-65 0 -65 0 0 -320z"/>
<path d="M2350 1870 l0 -70 455 0 455 0 0 70 0 70 -455 0 -455 0 0 -70z"/>
<path d="M2790 1615 l0 -65 235 0 235 0 0 65 0 65 -235 0 -235 0 0 -65z"/>
<path d="M3350 1615 l0 -65 810 0 810 0 0 65 0 65 -810 0 -810 0 0 -65z"/>
<path d="M2780 1365 l0 -65 240 0 240 0 0 65 0 65 -240 0 -240 0 0 -65z"/>
<path d="M3340 1365 l0 -65 815 0 815 0 0 65 0 65 -815 0 -815 0 0 -65z"/>
</g>
</svg>
