<svg xmlns="http://www.w3.org/2000/svg" viewBox="0 0 660.67 214.94"><defs><style>.cls-1{opacity:0.9;}.cls-2{fill:#009fe3;}</style></defs><title>3 logo</title><g id="Layer_1" data-name="Layer 1"><g class="cls-1"><path class="cls-2" d="M474.13,124.39c-4.28,6.46-8.1,13.3-13,19.27-7,8.57-16,14.58-27.2,16.68-6.18,1.15-9.93-.59-11.78-5.62.13-.12.24-.3.39-.36.7-.26,1.42-.47,2.12-.73,8.58-3.17,15.9-8,20.41-16.22,5.18-9.5,1.17-20.55-8.6-23.33-7.38-2.1-14.23-.57-19.77,4.77-9.2,8.87-12.13,20.07-11.31,32.52.07.92,0,2.27-.6,2.73a52.11,52.11,0,0,1-7.35,5.1c-2.43,1.35-4.31.47-5.34-2.13a8,8,0,0,1-.7-3.26c.4-6,.85-12.05,1.47-18.06.53-5.09,1.84-10.16,1.87-15.23,0-5.89-4.06-8.38-9.79-6.93-3.47.88-5.65,3.17-7.26,6.15-3.11,5.76-6.17,11.55-9.3,17.29A35.18,35.18,0,0,1,366,140.4a13.18,13.18,0,0,1-.3-2.46c.34-2.2.81-4.39,1.13-6.6h0l.06-.51c.05-.39.11-.78.14-1.18,0-.11,0-.23,0-.34l.59-5.49a.31.31,0,0,0,.12-.2c.06-.73.11-1.47.14-2.21v0h0a21.65,21.65,0,0,0,0-2.79c-.38-4.51-4.21-6.61-8.22-4.8h0a4.2,4.2,0,0,0-3.64,1.91l-.11-.09-.16.48a11,11,0,0,0-1.53,4.3v0c-.09.33-.17.67-.23,1-1.45,8.75-2.72,17.52-4.13,26.27-.21,1.33-.38,3.1-1.27,3.82A103.3,103.3,0,0,1,336,160.8c-4.44,2.62-6.85.87-7-4.25-.27-7.33,1.93-14.22,3.7-21.18,1.45-5.69,3.08-11.33,4.47-17,.88-3.58-.43-5-4.18-5a11.12,11.12,0,0,0-2.24.09c-3.91.8-8,1.65-9.21,6.17-2.11,7.83-3.9,15.75-5.85,23.63-.42,1.71-.44,3.81-1.48,5-3.67,4.28-7.87,8-13.44,9.76-3,.93-4.73.08-4.85-3a40.28,40.28,0,0,1,.9-11c1-4.31,2.46-8.53,3.85-12.76a19.79,19.79,0,0,0,1.12-3.48c.09-.26.17-.52.25-.78l-.06-.05a66.21,66.21,0,0,0,1.13-7.29h0a7.81,7.81,0,0,0-1.07-5.22c-1.35-2.09-4-2.83-7-1.76a13,13,0,0,0-4,2,115.35,115.35,0,0,0-9.62,8.57c-3,3.09-5.51,6.61-8.32,9.87-.45.53-1.32.7-2,1,.1-.74.16-1.49.3-2.23a3.1,3.1,0,0,1,.39-.74c8.27-15.3,16.28-30.73,21.6-47.38,2.2-6.91,3.7-13.91,3-21.24-.49-5.53-3.3-9.2-7.95-9.79-5.69-.72-11,.33-15.57,4A37.69,37.69,0,0,0,262.23,71C255,87.3,252.55,104.68,251,122.23c-.42,4.59-.73,9.2-1.09,13.79A38.16,38.16,0,0,0,235,119.78c-3.4-2.1-7.18-3.58-10.76-5.41-8.31-4.24-17.14-7.6-24.4-13.7-9-7.51-7.49-17.66,3.22-22.44.51-.22,1-.43,1.56-.62,7.12-2.54,14.42-2.32,21.59-.67,12.08,2.78,15.14,10.37,8.91,21a39.36,39.36,0,0,0-2.75,6.1c-.74,2-1.13,4.51.9,5.61,1.54.83,3.84.33,5.8.31a3.69,3.69,0,0,0,1.51-.7c6.49-3.55,12.05-15,11.2-22.31-1.05-9-6.24-15-13.71-19.36-8.55-5-17.92-5.73-27.46-4.75-8.41.87-16.23,3.54-22.92,9-10.1,8.2-13.26,23.87-1.83,34.43a68.59,68.59,0,0,0,13,9.1c6.43,3.6,13.3,6.42,19.8,9.91a53.74,53.74,0,0,1,10.19,6.91c9.15,8.09,8.49,19-1.77,25.63-11.44,7.39-24,8.06-36.59,3.66-7.11-2.48-10.3-7.9-10.05-15.48.09-2.88.89-5.72,1.12-8.6.37-4.79-2.13-6.62-6.77-5.14-5.55,1.77-9.73,7.81-9.92,14.34-.32,11.17,6.22,21.18,17.53,26.1,12.92,5.63,26.34,6,39.83,2.56,11.65-2.92,21.18-8.86,26.38-20.31,0-.09.31-.07.71-.15,0,1.34-.09,2.64,0,3.92.32,3.62.54,7.27,1.15,10.84a4.68,4.68,0,0,0,4.39,4.1c2.36.23,3.92-1,5-2.94.76-1.39,1.4-2.85,2.06-4.29a124.55,124.55,0,0,1,22.32-33.82,16.1,16.1,0,0,1,2.55-1.87,67.47,67.47,0,0,1-3.32,9.36h0c-.13.32-.26.63-.38.94a1.39,1.39,0,0,0-.09.35l-1.49,4.13c-2.42,7.54-2.24,14.93,1.81,21.93,2.9,5,6.76,7,12.44,5.82a42.57,42.57,0,0,0,9.41-3.45,90.39,90.39,0,0,0,7.88-4.62c1.68,5.88,4.92,9.52,13.43,8.11,5.32-.89,10.43-3.27,15.51-5.29,2.36-.93,4.43-2.59,7-4.12.19,1.28.24,2.19.47,3.06.76,2.89,1.79,5.56,5.14,6.4,4,1,6.63-.2,8.66-4.2q7.67-15.13,15.27-30.32c.47-.92,1.05-1.8,1.58-2.69l.72.24a20.12,20.12,0,0,1,0,2.33c-.45,4.08-1.14,8.15-1.37,12.25-.39,6.66-.25,13.3,3.11,19.38,1.49,2.68,3.71,3.59,6.81,3.23a33.56,33.56,0,0,0,14.94-6c1.76-1.18,3.46-2.45,5.28-3.75,4.31,6.22,10.16,9.65,17.38,9.67a51.9,51.9,0,0,0,14.33-2c24.77-7.1,33.94-30.31,33.76-48.77-.41.75-.63,1.23-.92,1.66m-210.45,3-.78-.23c.9-6.65,1.69-13.31,2.72-19.94.69-4.43,1.71-8.8,2.62-13.18,1.94-9.37,6-17.85,11-25.9,1-1.53,2.7-2.56,4.09-3.82.43,1.83,1.53,3.8,1.17,5.46-1.48,6.91-2.82,14-5.29,20.54-4.55,12.14-9.86,24-14.86,36a8.61,8.61,0,0,1-.7,1.11m156.43,16.51c.6-6.31.62-12.73,6.34-17.11,2.68-2.06,5.91-2.38,7.52-1,2,1.72,2.64,5.87,1.33,8.6-2.37,5-10,9.88-15.19,9.5"/><path class="cls-2" d="M475.08,117.5s6-13.35,10-15.28,9.41-1.09,9.83,3.69-5.55,2.77-11.34,5.79a76.27,76.27,0,0,0-8.48,5.8"/><path class="cls-2" d="M481.45,121.17s9.67-1.19,12,.33,3.44,4.68.74,6.47-3.29-2-6.8-4.16a45.68,45.68,0,0,0-5.94-2.64"/><path class="cls-2" d="M387.13,39.66a1.32,1.32,0,0,0-.05-1.8,1.29,1.29,0,0,0-1.79,0L335.43,83.11a2.28,2.28,0,0,1-3,.06L300.79,56.53A1.31,1.31,0,0,0,299,58.38L326.12,90a2.27,2.27,0,0,1-.06,3l-45.33,48.64a1.3,1.3,0,0,0,1.82,1.86L331.32,99.4a2.29,2.29,0,0,1,3-.05L366,126a1.3,1.3,0,0,0,1.83-1.84L341.43,93a2.28,2.28,0,0,1,.05-3Z"/></g></g></svg>